REM DIRINDEX 1\2,1\3
REM DIRNAME cjc116,folder01,folder02
TITLE ""
FILE "Disc1Track03.mp3" MP3
  TRACK 01 AUDIO
    TITLE "0:"
    INDEX 01 00:00:00
  TRACK 02 AUDIO
    TITLE "3:cjc116_0390"
    INDEX 01 00:00:09
  TRACK 03 AUDIO
    TITLE "0:"
    INDEX 01 00:10:41
  TRACK 04 AUDIO
    TITLE "3:cjc116_0391"
    INDEX 01 00:11:25
  TRACK 05 AUDIO
    TITLE "0:"
    INDEX 01 00:12:61
  TRACK 06 AUDIO
    TITLE "2:cjc116_0392"
    INDEX 01 00:13:30
  TRACK 07 AUDIO
    TITLE "0:"
    INDEX 01 00:14:23
  TRACK 08 AUDIO
    TITLE "2:cjc116_0393"
    INDEX 01 00:14:45
  TRACK 09 AUDIO
    TITLE "0:"
    INDEX 01 00:16:24
  TRACK 10 AUDIO
    TITLE "2:cjc116_0394"
    INDEX 01 00:16:57
  TRACK 11 AUDIO
    TITLE "0:"
    INDEX 01 00:18:29
  TRACK 12 AUDIO
    TITLE "2:cjc116_0395"
    INDEX 01 00:18:74
  TRACK 13 AUDIO
    TITLE "0:"
    INDEX 01 00:20:10
  TRACK 14 AUDIO
    TITLE "2:cjc116_0396"
    INDEX 01 00:20:37
  TRACK 15 AUDIO
    TITLE "0:"
    INDEX 01 00:22:05
  TRACK 16 AUDIO
    TITLE "2:cjc116_0397"
    INDEX 01 00:22:54
  TRACK 17 AUDIO
    TITLE "0:"
    INDEX 01 00:24:35
  TRACK 18 AUDIO
    TITLE "2:cjc116_0398"
    INDEX 01 00:24:69
  TRACK 19 AUDIO
    TITLE "0:"
    INDEX 01 00:26:03
  TRACK 20 AUDIO
    TITLE "2:cjc116_0399"
    INDEX 01 00:26:24
  TRACK 21 AUDIO
    TITLE "0:"
    INDEX 01 00:28:06
  TRACK 22 AUDIO
    TITLE "2:cjc116_0400"
    INDEX 01 00:28:45
  TRACK 23 AUDIO
    TITLE "0:"
    INDEX 01 00:30:26
  TRACK 24 AUDIO
    TITLE "2:cjc116_0401"
    INDEX 01 00:30:61
  TRACK 25 AUDIO
    TITLE "0:"
    INDEX 01 00:32:00
  TRACK 26 AUDIO
    TITLE "2:cjc116_0402"
    INDEX 01 00:32:09
  TRACK 27 AUDIO
    TITLE "0:"
    INDEX 01 00:33:52
  TRACK 28 AUDIO
    TITLE "2:cjc116_0403"
    INDEX 01 00:34:06
  TRACK 29 AUDIO
    TITLE "0:"
    INDEX 01 00:36:01
  TRACK 30 AUDIO
    TITLE "2:cjc116_0404"
    INDEX 01 00:36:48
  TRACK 31 AUDIO
    TITLE "0:"
    INDEX 01 00:37:67
  TRACK 32 AUDIO
    TITLE "2:cjc116_0405"
    INDEX 01 00:38:20
  TRACK 33 AUDIO
    TITLE "0:"
    INDEX 01 00:40:60
  TRACK 34 AUDIO
    TITLE "2:cjc116_0406"
    INDEX 01 00:41:24
  TRACK 35 AUDIO
    TITLE "0:"
    INDEX 01 00:43:54
  TRACK 36 AUDIO
    TITLE "2:cjc116_0407"
    INDEX 01 00:44:16
  TRACK 37 AUDIO
    TITLE "0:"
    INDEX 01 00:45:14
  TRACK 38 AUDIO
    TITLE "2:cjc116_0408"
    INDEX 01 00:45:35
  TRACK 39 AUDIO
    TITLE "0:"
    INDEX 01 00:47:21
  TRACK 40 AUDIO
    TITLE "2:cjc116_0409"
    INDEX 01 00:47:54
  TRACK 41 AUDIO
    TITLE "0:"
    INDEX 01 00:49:39
  TRACK 42 AUDIO
    TITLE "2:cjc116_0410"
    INDEX 01 00:49:72
  TRACK 43 AUDIO
    TITLE "0:"
    INDEX 01 00:50:64
  TRACK 44 AUDIO
    TITLE "2:cjc116_0411"
    INDEX 01 00:51:11
  TRACK 45 AUDIO
    TITLE "0:"
    INDEX 01 00:52:63
  TRACK 46 AUDIO
    TITLE "2:cjc116_0412"
    INDEX 01 00:53:23
  TRACK 47 AUDIO
    TITLE "0:"
    INDEX 01 00:55:34
  TRACK 48 AUDIO
    TITLE "2:cjc116_0413"
    INDEX 01 00:55:71
  TRACK 49 AUDIO
    TITLE "0:"
    INDEX 01 00:57:21
  TRACK 50 AUDIO
    TITLE "2:cjc116_0414"
    INDEX 01 00:57:35
  TRACK 51 AUDIO
    TITLE "0:"
    INDEX 01 00:59:20
  TRACK 52 AUDIO
    TITLE "2:cjc116_0415"
    INDEX 01 00:59:63
  TRACK 53 AUDIO
    TITLE "0:"
    INDEX 01 01:01:50
  TRACK 54 AUDIO
    TITLE "2:cjc116_0416"
    INDEX 01 01:02:10
  TRACK 55 AUDIO
    TITLE "0:"
    INDEX 01 01:03:08
  TRACK 56 AUDIO
    TITLE "2:cjc116_0417"
    INDEX 01 01:03:26
  TRACK 57 AUDIO
    TITLE "0:"
    INDEX 01 01:04:50
  TRACK 58 AUDIO
    TITLE "2:cjc116_0418"
    INDEX 01 01:05:09
  TRACK 59 AUDIO
    TITLE "0:"
    INDEX 01 01:06:47
  TRACK 60 AUDIO
    TITLE "2:cjc116_0419"
    INDEX 01 01:07:00
  TRACK 61 AUDIO
    TITLE "0:"
    INDEX 01 01:08:09
  TRACK 62 AUDIO
    TITLE "2:cjc116_0420"
    INDEX 01 01:08:25
  TRACK 63 AUDIO
    TITLE "0:"
    INDEX 01 01:12:07
  TRACK 64 AUDIO
    TITLE "2:cjc116_0421"
    INDEX 01 01:12:48
  TRACK 65 AUDIO
    TITLE "0:"
    INDEX 01 01:16:07
  TRACK 66 AUDIO
    TITLE "2:cjc116_0422"
    INDEX 01 01:16:56
  TRACK 67 AUDIO
    TITLE "0:"
    INDEX 01 01:17:71
  TRACK 68 AUDIO
    TITLE "2:cjc116_0423"
    INDEX 01 01:18:21
  TRACK 69 AUDIO
    TITLE "0:"
    INDEX 01 01:20:10
  TRACK 70 AUDIO
    TITLE "2:cjc116_0424"
    INDEX 01 01:20:44
  TRACK 71 AUDIO
    TITLE "0:"
    INDEX 01 01:22:56
  TRACK 72 AUDIO
    TITLE "2:cjc116_0425"
    INDEX 01 01:23:30
  TRACK 73 AUDIO
    TITLE "0:"
    INDEX 01 01:24:59
  TRACK 74 AUDIO
    TITLE "2:cjc116_0426"
    INDEX 01 01:25:08
  TRACK 75 AUDIO
    TITLE "0:"
    INDEX 01 01:27:12
  TRACK 76 AUDIO
    TITLE "2:cjc116_0427"
    INDEX 01 01:27:48
  TRACK 77 AUDIO
    TITLE "0:"
    INDEX 01 01:28:72
  TRACK 78 AUDIO
    TITLE "2:cjc116_0428"
    INDEX 01 01:29:41
  TRACK 79 AUDIO
    TITLE "0:"
    INDEX 01 01:30:48
  TRACK 80 AUDIO
    TITLE "2:cjc116_0429"
    INDEX 01 01:30:69
  TRACK 81 AUDIO
    TITLE "0:"
    INDEX 01 01:32:45
  TRACK 82 AUDIO
    TITLE "2:cjc116_0430"
    INDEX 01 01:33:03
  TRACK 83 AUDIO
    TITLE "0:"
    INDEX 01 01:35:04
  TRACK 84 AUDIO
    TITLE "2:cjc116_0431"
    INDEX 01 01:35:47
  TRACK 85 AUDIO
    TITLE "0:"
    INDEX 01 01:37:03
  TRACK 86 AUDIO
    TITLE "2:cjc116_0432"
    INDEX 01 01:37:21
  TRACK 87 AUDIO
    TITLE "0:"
    INDEX 01 01:39:39
  TRACK 88 AUDIO
    TITLE "2:cjc116_0433"
    INDEX 01 01:39:70
  TRACK 89 AUDIO
    TITLE "0:"
    INDEX 01 01:41:69
  TRACK 90 AUDIO
    TITLE "2:cjc116_0434"
    INDEX 01 01:42:37
  TRACK 91 AUDIO
    TITLE "0:"
    INDEX 01 01:43:45
  TRACK 92 AUDIO
    TITLE "2:cjc116_0435"
    INDEX 01 01:43:66
  TRACK 93 AUDIO
    TITLE "0:"
    INDEX 01 01:45:32
  TRACK 94 AUDIO
    TITLE "2:cjc116_0436"
    INDEX 01 01:45:69
  TRACK 95 AUDIO
    TITLE "0:"
    INDEX 01 01:47:01
  TRACK 96 AUDIO
    TITLE "2:cjc116_0437"
    INDEX 01 01:47:40
  TRACK 97 AUDIO
    TITLE "0:"
    INDEX 01 01:48:60
  TRACK 98 AUDIO
    TITLE "2:cjc116_0438"
    INDEX 01 01:49:04
  TRACK 99 AUDIO
    TITLE "0:"
    INDEX 01 01:50:64
  TRACK 100 AUDIO
    TITLE "2:cjc116_0439"
    INDEX 01 01:51:25
  TRACK 101 AUDIO
    TITLE "0:"
    INDEX 01 01:53:04
  TRACK 102 AUDIO
    TITLE "2:cjc116_0440"
    INDEX 01 01:53:35
  TRACK 103 AUDIO
    TITLE "0:"
    INDEX 01 01:54:52
  TRACK 104 AUDIO
    TITLE "2:cjc116_0441"
    INDEX 01 01:54:66
  TRACK 105 AUDIO
    TITLE "0:"
    INDEX 01 01:56:67
  TRACK 106 AUDIO
    TITLE "2:cjc116_0442"
    INDEX 01 01:57:19
  TRACK 107 AUDIO
    TITLE "0:"
    INDEX 01 01:59:36
  TRACK 108 AUDIO
    TITLE "2:cjc116_0443"
    INDEX 01 01:59:67
  TRACK 109 AUDIO
    TITLE "0:"
    INDEX 01 02:00:74
  TRACK 110 AUDIO
    TITLE "2:cjc116_0444"
    INDEX 01 02:01:17
  TRACK 111 AUDIO
    TITLE "0:"
    INDEX 01 02:03:14
  TRACK 112 AUDIO
    TITLE "2:cjc116_0445"
    INDEX 01 02:03:45
  TRACK 113 AUDIO
    TITLE "0:"
    INDEX 01 02:05:17
  TRACK 114 AUDIO
    TITLE "2:cjc116_0446"
    INDEX 01 02:05:58
  TRACK 115 AUDIO
    TITLE "0:"
    INDEX 01 02:06:69
  TRACK 116 AUDIO
    TITLE "2:cjc116_0447"
    INDEX 01 02:07:12
  TRACK 117 AUDIO
    TITLE "0:"
    INDEX 01 02:09:03
  TRACK 118 AUDIO
    TITLE "2:cjc116_0448"
    INDEX 01 02:09:40
  TRACK 119 AUDIO
    TITLE "0:"
    INDEX 01 02:11:37
  TRACK 120 AUDIO
    TITLE "2:cjc116_0449"
    INDEX 01 02:12:05
  TRACK 121 AUDIO
    TITLE "0:"
    INDEX 01 02:13:07
  TRACK 122 AUDIO
    TITLE "2:cjc116_0450"
    INDEX 01 02:13:34
  TRACK 123 AUDIO
    TITLE "0:"
    INDEX 01 02:14:67
  TRACK 124 AUDIO
    TITLE "2:cjc116_0451"
    INDEX 01 02:15:33
  TRACK 125 AUDIO
    TITLE "0:"
    INDEX 01 02:17:00
  TRACK 126 AUDIO
    TITLE "2:cjc116_0452"
    INDEX 01 02:17:44
  TRACK 127 AUDIO
    TITLE "0:"
    INDEX 01 02:18:53
  TRACK 128 AUDIO
    TITLE "2:cjc116_0453"
    INDEX 01 02:18:72
  TRACK 129 AUDIO
    TITLE "0:"
    INDEX 01 02:21:67
  TRACK 130 AUDIO
    TITLE "2:cjc116_0454"
    INDEX 01 02:22:37
  TRACK 131 AUDIO
    TITLE "0:"
    INDEX 01 02:24:71
  TRACK 132 AUDIO
    TITLE "2:cjc116_0455"
    INDEX 01 02:25:41
  TRACK 133 AUDIO
    TITLE "0:"
    INDEX 01 02:26:31
  TRACK 134 AUDIO
    TITLE "2:cjc116_0456"
    INDEX 01 02:26:44
  TRACK 135 AUDIO
    TITLE "0:"
    INDEX 01 02:28:35
  TRACK 136 AUDIO
    TITLE "2:cjc116_0457"
    INDEX 01 02:28:71
  TRACK 137 AUDIO
    TITLE "0:"
    INDEX 01 02:30:64
  TRACK 138 AUDIO
    TITLE "2:cjc116_0458"
    INDEX 01 02:31:38
  TRACK 139 AUDIO
    TITLE "0:"
    INDEX 01 02:32:35
  TRACK 140 AUDIO
    TITLE "2:cjc116_0459"
    INDEX 01 02:32:65
  TRACK 141 AUDIO
    TITLE "0:"
    INDEX 01 02:34:34
  TRACK 142 AUDIO
    TITLE "2:cjc116_0460"
    INDEX 01 02:34:71
  TRACK 143 AUDIO
    TITLE "0:"
    INDEX 01 02:36:60
  TRACK 144 AUDIO
    TITLE "2:cjc116_0461"
    INDEX 01 02:37:36
  TRACK 145 AUDIO
    TITLE "0:"
    INDEX 01 02:38:36
  TRACK 146 AUDIO
    TITLE "2:cjc116_0462"
    INDEX 01 02:38:57
  TRACK 147 AUDIO
    TITLE "0:"
    INDEX 01 02:40:48
  TRACK 148 AUDIO
    TITLE "2:cjc116_0463"
    INDEX 01 02:41:03
  TRACK 149 AUDIO
    TITLE "0:"
    INDEX 01 02:43:02
  TRACK 150 AUDIO
    TITLE "2:cjc116_0464"
    INDEX 01 02:43:51
  TRACK 151 AUDIO
    TITLE "0:"
    INDEX 01 02:44:54
  TRACK 152 AUDIO
    TITLE "2:cjc116_0465"
    INDEX 01 02:45:05
  TRACK 153 AUDIO
    TITLE "0:"
    INDEX 01 02:47:51
  TRACK 154 AUDIO
    TITLE "2:cjc116_0466"
    INDEX 01 02:48:11
  TRACK 155 AUDIO
    TITLE "0:"
    INDEX 01 02:50:00
  TRACK 156 AUDIO
    TITLE "2:cjc116_0467"
    INDEX 01 02:50:49
  TRACK 157 AUDIO
    TITLE "0:"
    INDEX 01 02:51:42
  TRACK 158 AUDIO
    TITLE "2:cjc116_0468"
    INDEX 01 02:51:60
  TRACK 159 AUDIO
    TITLE "0:"
    INDEX 01 02:53:08
  TRACK 160 AUDIO
    TITLE "2:cjc116_0469"
    INDEX 01 02:53:43
  TRACK 161 AUDIO
    TITLE "0:"
    INDEX 01 02:55:11
  TRACK 162 AUDIO
    TITLE "2:cjc116_0470"
    INDEX 01 02:55:56
  TRACK 163 AUDIO
    TITLE "0:"
    INDEX 01 02:56:51
  TRACK 164 AUDIO
    TITLE "2:cjc116_0471"
    INDEX 01 02:56:63
  TRACK 165 AUDIO
    TITLE "0:"
    INDEX 01 02:58:58
  TRACK 166 AUDIO
    TITLE "2:cjc116_0472"
    INDEX 01 02:59:16
  TRACK 167 AUDIO
    TITLE "0:"
    INDEX 01 03:01:37
  TRACK 168 AUDIO
    TITLE "2:cjc116_0473"
    INDEX 01 03:02:07
  TRACK 169 AUDIO
    TITLE "0:"
    INDEX 01 03:03:12
  TRACK 170 AUDIO
    TITLE "2:cjc116_0474"
    INDEX 01 03:03:26
  TRACK 171 AUDIO
    TITLE "0:"
    INDEX 01 03:06:01
  TRACK 172 AUDIO
    TITLE "2:cjc116_0475"
    INDEX 01 03:06:32
  TRACK 173 AUDIO
    TITLE "0:"
    INDEX 01 03:09:42
  TRACK 174 AUDIO
    TITLE "2:cjc116_0476"
    INDEX 01 03:10:06
  TRACK 175 AUDIO
    TITLE "0:"
    INDEX 01 03:11:14
  TRACK 176 AUDIO
    TITLE "2:cjc116_0477"
    INDEX 01 03:11:35
  TRACK 177 AUDIO
    TITLE "0:"
    INDEX 01 03:13:05
  TRACK 178 AUDIO
    TITLE "2:cjc116_0478"
    INDEX 01 03:13:40
  TRACK 179 AUDIO
    TITLE "0:"
    INDEX 01 03:14:47
  TRACK 180 AUDIO
    TITLE "2:cjc116_0479"
    INDEX 01 03:15:08
  TRACK 181 AUDIO
    TITLE "0:"
    INDEX 01 03:16:05
  TRACK 182 AUDIO
    TITLE "2:cjc116_0480"
    INDEX 01 03:16:31
  TRACK 183 AUDIO
    TITLE "0:"
    INDEX 01 03:18:12
  TRACK 184 AUDIO
    TITLE "2:cjc116_0481"
    INDEX 01 03:18:53
  TRACK 185 AUDIO
    TITLE "0:"
    INDEX 01 03:21:28
  TRACK 186 AUDIO
    TITLE "2:cjc116_0482"
    INDEX 01 03:21:69
  TRACK 187 AUDIO
    TITLE "0:"
    INDEX 01 03:23:17
  TRACK 188 AUDIO
    TITLE "2:cjc116_0483"
    INDEX 01 03:23:40
  TRACK 189 AUDIO
    TITLE "0:"
    INDEX 01 03:25:55
  TRACK 190 AUDIO
    TITLE "2:cjc116_0484"
    INDEX 01 03:26:09
  TRACK 191 AUDIO
    TITLE "0:"
    INDEX 01 03:28:08
  TRACK 192 AUDIO
    TITLE "2:cjc116_0485"
    INDEX 01 03:28:51
  TRACK 193 AUDIO
    TITLE "0:"
    INDEX 01 03:29:53
  TRACK 194 AUDIO
    TITLE "2:cjc116_0486"
    INDEX 01 03:30:05
  TRACK 195 AUDIO
    TITLE "0:"
    INDEX 01 03:31:46
  TRACK 196 AUDIO
    TITLE "2:cjc116_0487"
    INDEX 01 03:31:73
  TRACK 197 AUDIO
    TITLE "0:"
    INDEX 01 03:34:11
  TRACK 198 AUDIO
    TITLE "2:cjc116_0488"
    INDEX 01 03:34:62
  TRACK 199 AUDIO
    TITLE "0:"
    INDEX 01 03:35:42
  TRACK 200 AUDIO
    TITLE "2:cjc116_0489"
    INDEX 01 03:36:00
  TRACK 201 AUDIO
    TITLE "0:"
    INDEX 01 03:37:29
  TRACK 202 AUDIO
    TITLE "2:cjc116_0490"
    INDEX 01 03:37:62
  TRACK 203 AUDIO
    TITLE "0:"
    INDEX 01 03:39:39
